<svg width="151" height="42" viewBox="0 0 150 42" fill="none" xmlns="http://www.w3.org/2000/svg">
<path d="M148.883 6.32983L148.833 6.49241L148.893 6.65142C149.285 7.69218 149.5 8.82043 149.5 9.99999L149.5 32C149.5 37.2467 145.247 41.5 140 41.5L10 41.5C4.7533 41.5 0.5 37.2467 0.5 32V10C0.5 4.75329 4.7533 0.499996 10 0.499996L140 0.499992C141.713 0.499992 143.319 0.952923 144.705 1.74521L144.921 1.86827L145.149 1.77121C145.923 1.44217 146.66 1.07964 147.341 0.712158C147.966 0.375393 148.705 0.460583 149.254 0.822193C149.796 1.17971 150.094 1.76293 149.939 2.41094C149.651 3.61813 149.3 4.95649 148.883 6.32983Z" fill="current" fill-rule="nonzero" stroke="current"/>
</svg>
