<svg width="current" height="current" viewBox="0 0 24 24" fill="none" xmlns="http://www.w3.org/2000/svg">
<path fill-rule="evenodd" clip-rule="evenodd" d="M15 7.5C15 9.433 13.433 11 11.5 11C9.567 11 8 9.433 8 7.5C8 5.567 9.567 4 11.5 4C13.433 4 15 5.567 15 7.5ZM17 7.5C17 10.5376 14.5376 13 11.5 13C8.46243 13 6 10.5376 6 7.5C6 4.46243 8.46243 2 11.5 2C14.5376 2 17 4.46243 17 7.5ZM3 21C3 19.8073 3.76769 18.581 5.31648 17.6028C6.85249 16.6327 9.03603 16 11.5 16C13.964 16 16.1475 16.6327 17.6835 17.6028C19.2323 18.581 20 19.8073 20 21H22C22 18.879 20.641 17.1053 18.7515 15.9119C16.8492 14.7104 14.2827 14 11.5 14C8.71726 14 6.1508 14.7104 4.24849 15.9119C2.35895 17.1053 1 18.879 1 21H3ZM20 12H18V10H20V8H22V10H24V12H22V14H20V12Z" fill="current"/>
</svg>
