<svg width="20" height="20" viewBox="0 0 20 20" fill="none" xmlns="http://www.w3.org/2000/svg">
<path d="M2.51852 9.78565C3.90142 12.8602 6.13495 14.8412 8.64281 16.9307C9.38641 17.5503 10.4719 17.5517 11.2012 16.9154C13.7759 14.6688 16.2191 12.1573 17.6074 9.07137C18.2201 7.70954 18.1045 5.66764 17.3389 4.38531C16.7034 3.32108 15.33 2.85316 14.1061 3.04025C12.8823 3.22735 11.8173 3.96553 10.9466 4.8474C10.5808 5.21795 9.92873 6.21426 9.92873 6.5714C9.92873 6.21426 9.29025 5.21795 8.92442 4.8474C8.0537 3.96553 6.97477 3.22735 5.75095 3.04025C4.52714 2.85316 3.15408 3.32108 2.51852 4.38531C1.753 5.66764 1.90552 8.42382 2.51852 9.78565Z" fill="black" stroke="black"/>
</svg>
