<svg width="current" height="current" viewBox="0 0 24 24" fill="none" xmlns="http://www.w3.org/2000/svg">
<path d="M20.2842 12.1929C20.1129 12.0013 20.0184 11.755 20.0184 11.5C20.0184 11.245 20.1129 10.9987 20.2842 10.8071L21.6522 9.2953C21.803 9.13012 21.8966 8.92229 21.9196 8.70161C21.9426 8.48094 21.8939 8.25876 21.7805 8.06697L19.6429 4.43446C19.5306 4.24288 19.3596 4.09103 19.1542 4.00054C18.9489 3.91005 18.7197 3.88555 18.4994 3.93053L16.4901 4.32948C16.2344 4.38137 15.9683 4.33954 15.7418 4.21189C15.5154 4.08424 15.3444 3.87959 15.261 3.63657L14.6091 1.71533C14.5374 1.50681 14.4008 1.32569 14.2186 1.19759C14.0364 1.06948 13.8178 1.00086 13.5937 1.00143H9.31867C9.08561 0.989478 8.85497 1.05279 8.66199 1.1817C8.469 1.31061 8.32427 1.49803 8.24991 1.71533L7.6514 3.63657C7.56804 3.87959 7.39701 4.08424 7.17058 4.21189C6.94415 4.33954 6.67799 4.38137 6.42232 4.32948L4.35961 3.93053C4.15072 3.90153 3.93777 3.93391 3.74758 4.02359C3.55739 4.11326 3.39847 4.25623 3.29084 4.43446L1.15332 8.06697C1.03699 8.25662 0.984688 8.47755 1.00388 8.69817C1.02308 8.91878 1.11279 9.12779 1.26019 9.2953L2.61752 10.8071C2.78887 10.9987 2.88336 11.245 2.88336 11.5C2.88336 11.755 2.78887 12.0013 2.61752 12.1929L1.26019 13.7047C1.11279 13.8722 1.02308 14.0812 1.00388 14.3018C0.984688 14.5224 1.03699 14.7434 1.15332 14.933L3.29084 18.5655C3.40317 18.7571 3.57419 18.909 3.77954 18.9995C3.98488 19.0899 4.21407 19.1144 4.43442 19.0695L6.4437 18.6705C6.69936 18.6186 6.96553 18.6605 7.19195 18.7881C7.41838 18.9158 7.58941 19.1204 7.67278 19.3634L8.32472 21.2847C8.39909 21.502 8.54381 21.6894 8.7368 21.8183C8.92979 21.9472 9.16043 22.0105 9.39349 21.9986H13.6685C13.8926 21.9991 14.1112 21.9305 14.2934 21.8024C14.4756 21.6743 14.6122 21.4932 14.6839 21.2847L15.3358 19.3634C15.4192 19.1204 15.5902 18.9158 15.8166 18.7881C16.0431 18.6605 16.3092 18.6186 16.5649 18.6705L18.5742 19.0695C18.7945 19.1144 19.0237 19.0899 19.2291 18.9995C19.4344 18.909 19.6054 18.7571 19.7178 18.5655L21.8553 14.933C21.9688 14.7412 22.0175 14.5191 21.9944 14.2984C21.9714 14.0777 21.8778 13.8699 21.727 13.7047L20.2842 12.1929ZM18.6917 13.5997L19.5467 14.5446L18.1787 16.8753L16.9176 16.6233C16.1478 16.4687 15.3471 16.5972 14.6674 16.9842C13.9877 17.3713 13.4763 17.9901 13.2304 18.723L12.8242 19.8989H10.0882L9.70343 18.702C9.45746 17.9691 8.94608 17.3503 8.26637 16.9632C7.58666 16.5762 6.78594 16.4477 6.01619 16.6023L4.75505 16.8543L3.36566 14.5341L4.22067 13.5892C4.74645 13.0118 5.03713 12.2642 5.03713 11.4895C5.03713 10.7148 4.74645 9.96723 4.22067 9.38979L3.36566 8.44492L4.73368 6.13523L5.99482 6.3872C6.76456 6.54176 7.56529 6.41332 8.245 6.02625C8.92471 5.63919 9.43608 5.02045 9.68205 4.28748L10.0882 3.10114H12.8242L13.2304 4.29798C13.4763 5.03095 13.9877 5.64969 14.6674 6.03675C15.3471 6.42381 16.1478 6.55226 16.9176 6.39769L18.1787 6.14573L19.5467 8.47641L18.6917 9.42128C18.1719 9.9974 17.8848 10.7406 17.8848 11.5105C17.8848 12.2804 18.1719 13.0236 18.6917 13.5997ZM11.4562 7.30057C10.6107 7.30057 9.78414 7.54686 9.08111 8.0083C8.37808 8.46974 7.83013 9.1256 7.50656 9.89295C7.183 10.6603 7.09834 11.5047 7.26329 12.3193C7.42824 13.1339 7.8354 13.8821 8.43328 14.4694C9.03116 15.0567 9.7929 15.4567 10.6222 15.6187C11.4515 15.7808 12.311 15.6976 13.0922 15.3798C13.8734 15.0619 14.541 14.5237 15.0108 13.8331C15.4805 13.1425 15.7313 12.3306 15.7313 11.5C15.7313 10.3862 15.2809 9.3181 14.4791 8.53056C13.6774 7.74301 12.59 7.30057 11.4562 7.30057ZM11.4562 13.5997C11.0334 13.5997 10.6202 13.4766 10.2687 13.2458C9.91714 13.0151 9.64317 12.6872 9.48138 12.3035C9.3196 11.9199 9.27727 11.4977 9.35975 11.0904C9.44222 10.6831 9.6458 10.3089 9.94474 10.0153C10.2437 9.72163 10.6246 9.52165 11.0392 9.44063C11.4538 9.35961 11.8836 9.40119 12.2742 9.56012C12.6648 9.71904 12.9986 9.98817 13.2335 10.3335C13.4684 10.6788 13.5937 11.0847 13.5937 11.5C13.5937 12.0569 13.3685 12.5909 12.9677 12.9847C12.5668 13.3785 12.0231 13.5997 11.4562 13.5997Z" fill="current"/>
</svg>
