<svg width="20" height="20" viewBox="0 0 20 20" fill="none" xmlns="http://www.w3.org/2000/svg">
<path d="M8.74087 5.572L9.6181 2.38559C9.7599 1.87147 10.5029 1.87147 10.6447 2.38559L11.4898 5.45549C11.9208 7.02557 13.1743 8.24983 14.7794 8.67333L17.5264 9.39643C18.1579 9.56287 18.1579 10.4394 17.5264 10.6077L14.8815 11.3049C13.214 11.7451 11.9114 13.0193 11.4614 14.6504L10.6466 17.613C10.5048 18.129 9.75801 18.129 9.61621 17.613L8.90346 15.0221C8.39111 13.1617 6.90512 11.7062 5.0013 11.2051L2.40553 10.5208C1.86482 10.3784 1.86482 9.62759 2.40553 9.48519L5.60251 8.64374C7.13388 8.24059 8.32872 7.07181 8.74087 5.57384V5.572Z" fill="black" stroke="black"/>
</svg>
