<svg width="20" height="20" viewBox="0 0 20 20" fill="none" xmlns="http://www.w3.org/2000/svg">
<path d="M13.457 6.57533C13.7525 6.61003 14.0655 6.56986 14.361 6.51508C16.9895 6.02572 18.7296 6.18458 17.6992 8.42503C17.3278 9.23028 16.8204 9.98076 16.2021 10.6381C15.9863 10.8682 15.7491 11.0982 15.6481 11.3904C15.4731 11.8998 15.7569 12.4367 15.9961 12.9224C16.4277 13.8043 16.731 14.741 16.8962 15.6978C16.9409 15.9553 16.9643 16.2493 16.7854 16.4465C16.5813 16.6711 16.0174 16.6674 15.7064 16.6236C14.711 16.483 13.7525 16.1123 12.9398 15.5554C12.3546 15.1537 11.6314 14.6297 10.9957 14.9547C10.7585 15.077 10.5991 15.2961 10.4396 15.4988C9.62891 16.525 8.71904 17.3412 7.46505 17.8342C7.11316 17.973 6.69711 18.0844 6.36271 17.9127C5.96416 17.7101 5.87473 17.217 5.85723 16.7916C5.82029 15.8001 5.94277 14.8049 6.22079 13.8481C6.31994 13.5085 6.43659 13.1415 6.29467 12.8165C6.13913 12.4586 5.72503 12.276 5.34591 12.1263C4.61296 11.8341 3.88001 11.5438 3.14706 11.2516C2.6338 11.0471 2.04083 10.7458 2.00195 10.2236C1.97278 9.83468 2.27607 9.4987 2.58325 9.23941C3.27926 8.64963 4.10554 8.19679 4.99402 7.91559C5.62199 7.71656 6.32966 7.57414 6.73211 7.0793C7.084 6.64655 7.10344 6.06224 7.1676 5.52175C7.27647 4.6033 7.56226 3.7031 8.00553 2.87776C8.23883 2.44135 8.62183 1.97208 9.13898 2.0013C9.43061 2.01773 9.68141 2.19485 9.90304 2.37562C10.8421 3.14252 11.5984 4.10481 12.0999 5.173C12.3371 5.67696 12.5685 6.25579 13.1012 6.48221C13.2159 6.53151 13.3345 6.5589 13.4589 6.57351L13.457 6.57533Z" fill="current" stroke="current"/>
</svg>
